Coordinates
version=1
nRows=17
nColumns=24
inDegrees=yes

Units are S.I. units (second, meters, Newtons, ...)
Angles are in degrees.

endheader
time	pelvis_tilt	pelvis_list	pelvis_rotation	pelvis_tx	pelvis_ty	pelvis_tz	hip_flexion_r	hip_adduction_r	hip_rotation_r	knee_angle_r	ankle_angle_r	subtalar_angle_r	mtp_angle_r	hip_flexion_l	hip_adduction_l	hip_rotation_l	knee_angle_l	ankle_angle_l	subtalar_angle_l	mtp_angle_l	lumbar_extension	lumbar_bending	lumbar_rotation
      3.84500000	     -9.85984454	      3.31068400	     -8.66110245	     -1.81285056	     -0.04564854	      0.47505708	     -7.11062650	      0.50401609	     15.57850828	    -15.94295785	      8.62478322	     -0.68029226	      4.32703386	     35.75242938	     -1.64204720	     -5.29747868	     -9.15378667	     -4.22099065	      8.52064363	     10.29795663	      7.47151956	     -3.53262821	     15.93234668
      3.85000000	     -9.96346517	      3.59454493	     -8.64633144	     -1.80416292	     -0.04694522	      0.47463686	     -7.20036099	      0.08709520	     15.19346596	    -16.46268047	      8.52550228	      0.13876954	      4.72369622	     35.92767605	     -1.26836446	     -5.07676697	     -9.81305026	     -4.73389313	      8.32232464	     10.46626550	      7.78142210	     -3.81993129	     16.02472956
      3.85500000	    -10.06545469	      3.86403211	     -8.59930143	     -1.79554252	     -0.04820723	      0.47409728	     -7.24400195	     -0.32332105	     14.69822794	    -17.05870959	      8.41238832	      1.09116135	      5.23037538	     36.11892040	     -0.87652283	     -4.73713937	    -10.54004257	     -5.51969241	      7.90779521	     10.69944344	      8.06479508	     -4.09213509	     16.09433461
      3.86000000	    -10.19354456	      4.14358480	     -8.49227185	     -1.78679466	     -0.04942737	      0.47341102	     -7.27238048	     -0.75911253	     14.12259929	    -17.62792106	      8.21271964	      2.12136021	      5.78846668	     36.36672536	     -0.43246329	     -4.38671901	    -11.35047599	     -6.51240704	      7.37950713	     10.96849128	      8.38635146	     -4.37226529	     16.13642482
      3.86500000	    -10.35207175	      4.46891187	     -8.34394774	     -1.77802582	     -0.05059924	      0.47271956	     -7.22896201	     -1.24008559	     13.50289925	    -18.26453780	      7.98459206	      3.23734923	      6.38638830	     36.66302574	      0.06828453	     -3.98530202	    -12.20923275	     -7.62742441	      6.89812387	     11.16389338	      8.73947366	     -4.71529333	     16.09572709
      3.87000000	    -10.48517080	      4.77201899	     -8.13571682	     -1.76923295	     -0.05161445	      0.47180102	     -7.21760316	     -1.72812318	     12.76371269	    -18.86243867	      7.55930688	      4.39432831	      7.26282927	     36.94477481	      0.62202541	     -3.43012018	    -13.08466094	     -8.99387376	      6.03048514	     11.44629650	      9.05154584	     -5.03450384	     16.04037539
      3.87500000	    -10.65195998	      5.09054995	     -7.90152926	     -1.76052416	     -0.05258131	      0.47084541	     -7.10295499	     -2.23902577	     11.95277307	    -19.57220801	      7.15422928	      5.75280724	      8.19020236	     37.30805184	      1.19587752	     -2.86121314	    -14.06834635	    -10.18907654	      5.36262197	     11.46339921	      9.37925318	     -5.37460148	     15.96575246
      3.88000000	    -10.81541293	      5.40950229	     -7.62510033	     -1.75187810	     -0.05343097	      0.46976858	     -6.94741629	     -2.76652580	     11.07890008	    -20.34757702	      6.66884458	      7.20964634	      9.23162868	     37.68892453	      1.81685361	     -2.17610456	    -15.10606694	    -11.27052370	      4.62712710	     11.26608989	      9.67847748	     -5.72344377	     15.86604575
      3.88500000	    -10.97766104	      5.74414707	     -7.30852211	     -1.74314061	     -0.05412634	      0.46858338	     -6.76874101	     -3.33286824	     10.14818122	    -21.14529137	      5.99438677	      8.71386351	     10.48208800	     38.06121800	      2.50159228	     -1.43263955	    -16.16212688	    -12.17602040	      3.81297177	     10.86250337	      9.98193002	     -6.08938451	     15.71881619
      3.89000000	    -11.13244705	      6.08327344	     -6.95434505	     -1.73436522	     -0.05470094	      0.46732578	     -6.56150859	     -3.92009817	      9.17089146	    -21.98926334	      5.15474905	     10.23192420	     11.92657828	     38.42934713	      3.23212167	     -0.68204405	    -17.26358977	    -12.82029897	      3.00696371	     10.26993830	     10.27225552	     -6.46911930	     15.55018738
      3.89500000	    -11.12414396	      6.37120834	     -6.63129503	     -1.72571780	     -0.05497867	      0.46605497	     -6.49536970	     -4.49430732	      8.25565739	    -22.78091730	      3.90371703	     11.59554050	     14.51787205	     38.61971324	      3.93584462	      0.02799283	    -18.43492078	    -12.96698524	      2.42209218	      9.27119399	     10.35195475	     -6.80903744	     15.38009122
      3.90000000	    -11.30714233	      6.63297938	     -6.27536888	     -1.71700823	     -0.05538546	      0.46473404	     -6.11965109	     -5.01011660	      7.34463920	    -23.85889633	      2.86834819	     13.16064608	     15.60665314	     38.99322461	      4.62284627	      0.76388337	    -19.57322651	    -13.13062816	      1.60389064	      8.64660596	     10.64208759	     -7.10134994	     15.22296464
      3.90500000	    -11.24141826	      6.86578316	     -5.98359158	     -1.70846614	     -0.05538570	      0.46346077	     -5.98155178	     -5.53493345	      6.59644478	    -24.81439455	      1.31023621	     14.38961886	     18.19847306	     39.07923567	      5.29686956	      1.38137614	    -20.76446264	    -12.74937667	      1.05001316	      7.22544041	     10.62828855	     -7.38017424	     15.10273217
      3.91000000	    -11.26441471	      7.05797973	     -5.67831142	     -1.69994036	     -0.05542388	      0.46219044	     -5.65635535	     -5.99225752	      5.91257354	    -25.95491120	     -0.20917301	     15.58298189	     20.00035086	     39.22142170	      5.93231683	      1.98062751	    -21.89187640	    -12.35214848	      0.41808912	      6.16581929	     10.70641202	     -7.60820043	     14.98850129
      3.91500000	    -11.32855562	      7.26315241	     -5.35104640	     -1.69143151	     -0.05544464	      0.46096668	     -5.19655659	     -6.44098210	      5.26661775	    -27.25923527	     -1.69271134	     16.63344766	     21.10976919	     39.34488987	      6.58663002	      2.57147579	    -22.90047990	    -12.00209552	     -0.27537618	      5.40821800	     10.82496330	     -7.85985816	     14.87527374
      3.92000000	    -11.21813083	      7.41132258	     -5.12126053	     -1.68311982	     -0.05519383	      0.45984692	     -4.87299578	     -6.83447305	      4.87254564	    -28.49385283	     -3.43885207	     17.40035200	     23.00670642	     39.25055339	      7.14637287	      2.98187404	    -23.91616867	    -11.19456182	     -0.65162321	      4.11761106	     10.72763273	     -8.04401474	     14.81383748
      3.92500000	    -11.19809320	      7.59129745	     -4.87029336	     -1.67485722	     -0.05499962	      0.45879537	     -4.35140323	     -7.22338931	      4.52691757	    -29.91316697	     -4.99625041	     17.97839208	     23.98593994	     39.17642127	      7.72568642	      3.40904728	    -24.75654116	    -10.59720751	     -1.16076275	      3.30226000	     10.73029804	     -8.26607626	     14.77913121
